<?xml version="1.0" standalone="no"?><!DOCTYPE svg PUBLIC "-//W3C//DTD SVG 1.1//EN" "http://www.w3.org/Graphics/SVG/1.1/DTD/svg11.dtd"><svg class="icon" width="512px" height="512.00px" viewBox="0 0 1024 1024" version="1.1" xmlns="http://www.w3.org/2000/svg"><path d="M366.828308 285.971692c13.036308 26.387692 26.112 49.467077 39.148307 69.277539a1029.986462 1029.986462 0 0 0 81.644308 115.396923 380.100923 380.100923 0 0 1-81.644308-36.233846c-62.030769-36.312615-91.372308-82.471385-81.604923-138.555077-117.523692 33.004308-228.548923 95.665231-323.229538 188.022154l114.294154 92.356923c71.798154-46.198154 173.016615-75.894154 293.80923-79.163077h88.182154c-29.420308 6.577231-58.801231 13.193846-88.182154 23.079384-97.949538 26.387692-186.092308 52.775385-264.428307 82.471385l179.554461 148.401231c-13.075692-79.163077 9.806769-79.163077 32.649846-115.436308 9.806769-19.810462 26.112-32.964923 52.224-52.775385 26.112-16.502154 55.532308-32.964923 91.411693-52.775384-32.649846 46.198154-62.030769 95.665231-91.372308 145.132308-13.075692 23.079385-26.151385 46.158769-35.958154 69.277538 114.294154-49.506462 218.781538-39.581538 313.422769 16.462769l336.305231-277.031384C836.923077 302.473846 592.108308 236.504615 366.828308 285.932308z m352.571077 98.934154c-13.036308 29.696-62.030769 62.700308-137.097847 79.163077 45.686154-52.775385 107.716923-115.396923 104.448-151.709538 22.843077-3.308308 45.725538 46.158769 32.689231 72.546461zM575.803077 318.936615c3.268923 6.616615 6.537846 13.193846 6.537846 19.810462v23.079385c-3.268923 33.004308-26.112 65.969231-22.843077 95.66523 0 6.577231-133.907692-95.665231 16.305231-138.555077z m84.873846 395.815385c-48.955077-46.198154-45.686154-112.128-78.375385-148.440615-12.996923-13.193846-26.072615-23.079385-52.224-26.387693a146.510769 146.510769 0 0 1 52.263385-9.846154c81.604923 0 143.635692 72.546462 78.375385 184.674462z m228.548923-141.824c-6.537846-9.885538-26.112-39.581538-81.604923-56.083692-45.686154-13.193846-114.294154-19.771077-222.011077-16.502154 0 0-6.537846 0 0-3.268923h3.268923c62.030769-13.193846 280.772923-52.775385 303.616 32.964923v33.004308c-3.268923 3.268923-3.268923 6.577231-3.268923 9.846153z" fill="#04017C" /><path d="M494.158769 500.342154h-88.182154c-173.016615 6.616615-300.347077 59.392-372.184615 148.440615 104.487385-46.158769 228.548923-89.048615 372.184615-125.321846 26.151385-6.616615 58.801231-13.193846 88.182154-23.118769z m-140.406154 138.555077c-29.380923 49.467077-55.532308 36.233846-19.574153 187.982769 22.843077-52.775385 45.686154-102.242462 71.798153-145.132308 29.380923-52.775385 58.801231-102.242462 91.451077-145.092923-35.918769 19.771077-68.568615 36.233846-91.451077 52.775385-22.843077 13.193846-39.148308 29.656615-52.224 49.467077z m48.994462-201.216c22.843077 13.193846 52.224 26.387692 81.604923 36.273231a1029.986462 1029.986462 0 0 1-81.604923-115.396924c-22.843077-39.620923-45.725538-79.163077-62.030769-122.092307-42.456615 85.779692-22.843077 151.748923 62.030769 201.255384z m179.554461 23.079384c78.375385-13.154462 124.061538-46.158769 137.097847-75.854769 13.075692-26.387692-13.036308-72.546462-35.879385-75.854769 6.498462 36.273231-55.532308 98.973538-101.218462 151.709538z m3.268924 33.004308h-3.268924c-6.537846 3.308308 0 3.308308 0 3.308308 107.716923 0 176.285538 3.268923 222.011077 16.462769 58.761846 16.541538 78.375385 46.198154 81.604923 56.083692 0-3.308308 0-6.577231 3.268924-9.885538v-33.004308c-22.843077-85.740308-238.316308-46.158769-303.655385-32.964923z m-3.268924 36.273231a146.510769 146.510769 0 0 0-52.263384 9.885538c26.151385 3.308308 39.187692 13.193846 52.263384 26.387693 32.649846 36.312615 29.380923 105.550769 78.375385 148.440615 65.260308-112.128 3.229538-184.713846-78.375385-184.713846z m-22.843076-69.277539c-6.537846-29.656615 16.305231-62.621538 22.843076-95.625846v-23.079384c0-6.616615-3.268923-13.193846-6.537846-19.810462-150.173538 39.581538-16.305231 141.824-16.30523 138.515692z" fill="#FFF100" /></svg>