<?xml version="1.0" standalone="no"?><!DOCTYPE svg PUBLIC "-//W3C//DTD SVG 1.1//EN" "http://www.w3.org/Graphics/SVG/1.1/DTD/svg11.dtd"><svg class="icon" width="512px" height="512.00px" viewBox="0 0 1024 1024" version="1.1" xmlns="http://www.w3.org/2000/svg"><path d="M460.300746 519.603885c41.737402 32.0118 80.954811 67.331093 121.825965 100.60289 122.534714 99.776017 253.416908 116.864727 393.473455 39.886782 5.394362-2.953118 11.497473-4.606864 17.24621-6.851234l11.339973 7.993106c-28.507433 52.604877-51.935504 108.910995-86.349173 157.145258-183.368946 257.078774-564.006182 275.703106-774.819438 41.186154-22.049948-24.530568-18.899956-38.58741 3.464991-59.219862 72.095456-66.34672 141.35592-73.040454 232.666332-24.254943 62.606104 33.468672 125.842206 67.173593 191.992051 92.176659 52.211128 19.766204 107.257249 11.261224 157.027133-15.080589l-0.669374-12.363722c-19.136205-3.071243-38.311785-5.906236-57.408616-9.174353-89.381041-15.356214-145.29341-83.35668-210.380133-137.142805-29.058682-24.018694-58.077989-48.746136-89.892915-68.591089-57.132991-35.634292-118.124724-38.193661-175.690839-2.480619-46.659266 28.901182-89.69604 63.708601-140.844046 100.52414-11.458098-40.162406-23.861194-79.458564-33.193047-119.542221-1.811246-7.756857 5.984986-20.868701 13.072469-27.247436 60.834233-55.164246 128.480325-98.397895 209.238261-117.100976 82.962931-19.214955 153.562141 10.237476 217.900741 59.53486z m435.880231-325.630488c-55.794245 84.183553-141.867793 108.989745-231.366959 65.598596-68.827339-33.311172-135.567808-71.662332-206.048894-100.681639-54.731122-22.561822-111.706614-15.041215-165.059614 22.404322 8.938104 2.559369 17.797458 6.733109 26.893062 7.481233 64.25985 5.236863 118.124724 32.917423 165.886488 75.599823 41.304278 36.894289 81.899809 74.93045 125.605956 108.674746 90.444164 69.772337 160.885874 70.166086 254.046906 3.543742 31.696801-22.679947 61.188607-48.509887 100.839139-80.246063 11.851847 45.517394 23.861194 87.215421 32.681174 129.543447 1.496247 7.205608-8.74123 20.238703-16.813086 25.554316-50.399882 33.193047-99.067268 70.874834-153.365266 95.877901-95.720401 44.099897-186.558314 22.443698-268.143123-41.343654-47.801138-37.406163-93.082282-78.198567-141.27717-115.053481-115.28973-88.199794-237.903194-98.35852-366.541018-31.303052-7.087483 3.701241-14.411216 7.048109-21.6562 10.355601-1.102497 0.511874-2.677494-0.118125-7.244983-0.472499 37.799912-175.21834 204.670772-327.599234 394.024704-361.934154 182.699573-33.074923 391.898459 48.588636 477.538884 186.440189z" fill="#1B2E92" /></svg>