<?xml version="1.0" standalone="no"?><!DOCTYPE svg PUBLIC "-//W3C//DTD SVG 1.1//EN" "http://www.w3.org/Graphics/SVG/1.1/DTD/svg11.dtd"><svg class="icon" width="512px" height="512.00px" viewBox="0 0 1024 1024" version="1.1" xmlns="http://www.w3.org/2000/svg"><path d="M559.891692 330.436923c16.147692 5.947077 31.586462 13.784615 47.340308 20.873846-8.743385 14.808615-14.454154 32.925538-26.624 44.032-104.999385 95.547077-211.180308 189.755077-316.809846 284.553846a224.374154 224.374154 0 0 0-25.206154 26.269539c-24.615385 30.680615-16.462769 63.645538 23.867077 76.642461 43.716923 14.020923 89.166769 25.206154 134.695385 30.444308 200.349538 22.843077 392.782769-2.520615 571.549538-101.966769 3.072-1.693538 6.695385-2.481231 18.668308-6.813539-41.156923 95.074462-97.516308 168.172308-176.285539 221.617231-169.196308 114.884923-349.892923 130.323692-531.416615 37.533539-183.335385-93.735385-272.935385-251.076923-279.591385-456.467693-1.575385-49.664 20.361846-85.031385 63.566769-99.524923C138.003692 382.621538 213.858462 358.636308 291.052308 346.348308c81.132308-12.957538 164.627692-11.736615 247.059692-16.580923 7.246769-0.433231 15.281231-1.693538 21.740308 0.669538z m462.92677 127.212308c5.277538 44.504615-6.301538 66.048-50.924308 89.718154-81.998769 43.480615-172.032 59.234462-262.577231 69.395692-67.426462 7.561846-135.68 8.192-203.618461 9.806769-12.406154 0.275692-25.048615-9.649231-37.572924-14.848 6.144-12.288 9.255385-28.041846 18.865231-36.312615 84.48-72.861538 170.220308-144.305231 255.330462-216.457846a336.344615 336.344615 0 0 0 33.870769-32.964923c32.689231-36.824615 27.254154-65.969231-19.574154-78.060308-51.357538-13.272615-104.487385-24.497231-157.302154-26.702769-186.210462-7.876923-369.152 8.073846-539.175384 94.444307-4.056615 2.048-8.704 2.953846-22.449231 7.483077 42.141538-104.841846 105.314462-181.129846 191.684923-237.095384 325.828923-211.219692 747.638154-13.233231 793.442462 371.554461z" fill="#D91618" /></svg>