<?xml version="1.0" standalone="no"?><!DOCTYPE svg PUBLIC "-//W3C//DTD SVG 1.1//EN" "http://www.w3.org/Graphics/SVG/1.1/DTD/svg11.dtd"><svg class="icon" width="512px" height="512.00px" viewBox="0 0 1024 1024" version="1.1" xmlns="http://www.w3.org/2000/svg"><path d="M130.402462 495.773538c0 36.155077-2.56 74.909538 0 111.064616 2.599385 49.033846 15.517538 98.067692 46.473846 136.822154 38.754462 49.073231 90.387692 69.710769 154.939077 64.590769 61.991385-5.198769 113.624615-30.995692 165.257846-64.590769 103.305846-67.111385 180.775385-157.538462 247.886769-258.205539a1014.350769 1014.350769 0 0 0 147.180308-338.274461c10.358154-41.314462 15.517538-85.188923 23.236923-131.702154 5.198769 25.836308 10.358154 49.073231 10.358154 69.710769 10.318769 98.146462-5.159385 193.693538-33.595077 289.240615-51.593846 170.417231-134.262154 320.196923-253.046154 451.859693-59.392 64.590769-126.503385 121.383385-206.572308 160.098461-43.874462 20.676923-90.387692 36.155077-139.421538 36.155077-82.628923 0-139.421538-38.715077-178.176-111.064615C86.528 857.324308 78.769231 795.332923 78.769231 733.341538c0-80.029538 20.676923-160.098462 46.473846-234.968615 2.599385 2.56 2.599385 0 5.159385-2.599385-2.56 0 0 0 0 0z" fill="#00519B" /><path d="M324.096 142.020923c-7.758769 23.236923-15.517538 46.473846-20.676923 67.150769-7.758769 30.956308-10.318769 64.551385 2.599385 95.507693 15.478154 38.754462 43.874462 61.991385 82.628923 72.310153 38.715077 7.758769 77.469538 2.599385 116.184615-7.719384 77.469538-20.676923 144.620308-61.991385 206.572308-111.064616 64.590769-51.593846 116.184615-111.025231 160.098461-180.775384 15.478154-23.236923 25.836308-49.033846 41.314462-77.430154l-7.758769 46.473846c-12.918154 64.590769-41.314462 121.383385-77.469539 173.016616-64.551385 95.547077-147.180308 173.016615-247.886769 229.80923-49.033846 28.396308-103.266462 51.633231-160.098462 59.392-30.956308 5.159385-64.551385 5.159385-95.507692-5.159384-51.672615-18.116923-80.068923-51.633231-87.827692-103.305846-7.719385-41.314462 0-80.029538 12.918154-118.784A542.050462 542.050462 0 0 1 324.135385 144.620308c-5.198769 0-2.599385-2.599385 0-2.599385-2.599385 0-2.599385 0 0 0z" fill="#F89B1C" /></svg>