<?xml version="1.0" standalone="no"?><!DOCTYPE svg PUBLIC "-//W3C//DTD SVG 1.1//EN" "http://www.w3.org/Graphics/SVG/1.1/DTD/svg11.dtd"><svg class="icon" width="512px" height="512.00px" viewBox="0 0 1024 1024" version="1.1" xmlns="http://www.w3.org/2000/svg"><path d="M587.14521 554.263667l219.646142 220.748901-219.646142 220.709517-219.685525-220.709517 219.685525-220.748901z m97.161024-433.542178c0 14.493416-12.760507 88.496482-111.615055 88.496482-0.393843-0.27569-336.893149-106.455715-496.596414 266.63159 0-537.201608 608.211469-562.998313 608.211469-355.128072z" fill="#E2B22B" /><path d="M678.437976 237.889729c182.388611 0 246.3093 81.998075 238.66875 146.942756-3.899044 33.20095-38.872286 71.049245-87.511875 73.097228-48.639588 2.047983-66.244363-60.927484-202.474594-60.927485-233.194335 0-359.499727 172.503156-370.645479 329.44952 0-72.624616 9.137153-197.197101 68.52865-302.392518-26.623775 18.274307-58.40689 45.567614-92.43491 97.791173-136.939149 209.996992-33.043413 401.877215 95.585653 491.240151-122.682039-73.097228-397.032948-291.049845-199.875232-624.87102 93.104443-157.694666 195.779266-171.045937 247.530213-131.346581 17.526006 13.508809 29.89267 40.093199 29.459443 68.922493 62.069629-52.617401 149.699656-87.866333 273.169381-87.866333z" fill="#0D3873" /></svg>