<?xml version="1.0" standalone="no"?><!DOCTYPE svg PUBLIC "-//W3C//DTD SVG 1.1//EN" "http://www.w3.org/Graphics/SVG/1.1/DTD/svg11.dtd"><svg class="icon" width="512px" height="512.00px" viewBox="0 0 1024 1024" version="1.1" xmlns="http://www.w3.org/2000/svg"><path d="M363.283692 850.668308a428.189538 428.189538 0 0 0 293.612308 71.719384 414.365538 414.365538 0 0 0 263.876923-139.500307c19.771077-22.803692 37.691077-47.064615 52.932923-75.145847 15.241846-28.120615 27.923692-60.100923 37.179077-98.185846 7.719385-31.350154 12.169846-63.291077 13.272615-95.586461 3.111385-92.002462-21.819077-180.814769-71.443692-252.573539-49.624615-71.601231-124.100923-126.267077-220.120615-150.016a454.104615 454.104615 0 0 0-89.166769-12.603077 368.994462 368.994462 0 0 0-238.749539 75.067077C341.346462 222.365538 291.918769 293.415385 269.981538 384.472615l-1.181538 4.765539-4.804923-1.457231a191.803077 191.803077 0 0 0-34.619077-6.537846 218.072615 218.072615 0 0 0-36.864-0.315077 345.403077 345.403077 0 0 0-52.814769 7.286154c-10.436923 2.363077-20.598154 5.513846-30.523077 9.373538 13.784615 1.890462 27.096615 4.804923 40.290461 9.176616 18.944 6.222769 37.572923 15.36 56.713847 27.963077 16.108308 10.555077 29.577846 23.433846 41.038769 37.494153 11.303385 13.863385 20.795077 28.947692 29.223384 43.835077 9.373538 16.541538 19.574154 34.461538 30.72 52.460308 11.027692 17.92 22.764308 35.84 35.091693 52.499692 45.292308 60.888615 102.912 96.098462 161.398154 107.441231a215.394462 215.394462 0 0 0 174.788923-42.180923 159.113846 159.113846 0 0 0 51.987692-73.176615c9.885538-27.569231 13.193846-57.186462 13.193846-85.464616-0.196923-38.990769-0.630154-62.700308-1.024-86.409846-0.393846-22.843077-0.708923-45.528615-1.024-81.762461h-201.452308l2.244923 191.488c11.027692 0 24.812308 0 39.778462-0.118154 40.054154-0.118154 88.654769-0.196923 116.381538 0.118154l8.428308 0.078769-4.332308 7.089231a132.017231 132.017231 0 0 1-59.943384 53.287384c-25.009231 11.264-55.099077 16.344615-90.505846 15.950769a142.690462 142.690462 0 0 1-66.756923-18.116923 177.545846 177.545846 0 0 1-55.808-48.836923 210.116923 210.116923 0 0 1-31.113847-60.376615c-7.325538-22.449231-10.279385-44.662154-8.861538-63.015385a227.958154 227.958154 0 0 1 77.784615-154.978461c44.898462-39.384615 105.038769-62.385231 169.826462-62.227693a257.969231 257.969231 0 0 1 132.253538 36.076308c38.715077 23.04 72.270769 56.871385 97.398154 100.470154 11.539692 20.007385 19.692308 41.747692 24.615385 66.205538 4.962462 24.379077 6.813538 51.2 5.474461 81.329231a354.067692 354.067692 0 0 1-35.328 137.294769c-19.889231 40.96-47.891692 78.729846-83.731692 107.874462-50.372923 41.117538-109.804308 68.726154-175.261538 74.436923-58.446769 5.12-121.580308-7.286154-187.273847-43.008a281.915077 281.915077 0 0 1-46.670769-32.059077c-16.974769-14.060308-32.413538-29.538462-46.237538-44.977231-11.027692-12.288-21.425231-24.969846-31.310769-38.203077a510.739692 510.739692 0 0 1-27.687385-41.629538c-10.003692-16.777846-22.134154-38.203077-33.988923-59.352615-8.664615-15.320615-17.211077-30.404923-25.560616-44.662154-28.317538-40.566154-58.289231-64.748308-93.61723-76.012308-31.389538-9.964308-67.347692-9.767385-109.883077-1.654154 0.196923 0.118154 0.393846 0.118154 0.708923 0.196923 11.421538 3.544615 26.899692 8.428308 40.369231 13.548308 66.166154 24.812308 98.855385 89.954462 127.606153 147.101538 7.089231 14.060308 13.902769 27.687385 20.913231 39.975385 10.712615 18.825846 21.937231 37.888 33.870769 56.635077 11.854769 18.510769 24.418462 36.745846 37.809231 53.956923 14.336 18.195692 29.380923 35.446154 45.961846 51.712 17.289846 16.777846 35.84 32.059077 55.611077 45.607385z" fill="#D70614" /></svg>