<?xml version="1.0" standalone="no"?><!DOCTYPE svg PUBLIC "-//W3C//DTD SVG 1.1//EN" "http://www.w3.org/Graphics/SVG/1.1/DTD/svg11.dtd"><svg class="icon" width="512px" height="512.00px" viewBox="0 0 1024 1024" version="1.1" xmlns="http://www.w3.org/2000/svg"><path d="M0.945231 510.424615c21.188923 47.261538 40.290462 98.855385 65.772307 143.95077 57.225846 103.108923 146.313846 165.415385 254.503385 199.758769 99.643077 32.216615 199.364923 32.216615 299.047385-2.126769 122.998154-42.968615 207.832615-124.612923 250.249846-251.352616 48.797538-141.784615 0-294.281846-122.998154-375.886769-114.530462-75.224615-233.314462-81.644308-356.312615-23.630769-2.126769 2.126769-6.380308 2.126769-8.507077 2.126769 27.569231-30.050462 63.645538-49.388308 101.80923-62.267077 133.632-45.134769 260.883692-38.675692 379.667693 42.929231 80.580923 55.847385 127.212308 135.325538 148.440615 231.975384 6.380308 34.382769 12.721231 70.892308 10.633846 105.275077-8.507077 146.116923-65.772308 266.358154-182.429538 354.461539-72.073846 55.847385-150.567385 92.356923-239.655385 103.069538-167.542154 21.504-318.148923-17.171692-445.400615-133.159384C83.692308 781.115077 37.021538 701.636923 15.793231 607.113846c-10.633846-32.216615-10.633846-66.56-14.848-96.649846z" fill="#0F60AA" /><path d="M200.310154 134.537846c-106.062769 150.370462-120.910769 305.033846-25.442462 463.950769 93.341538 154.702769 235.401846 221.262769 413.538462 212.676923-74.200615 17.211077-148.440615 19.337846-222.680616 0-106.023385-27.923692-192.984615-85.897846-252.376615-182.587076C13.705846 467.495385 39.108923 263.404308 189.715692 140.996923c2.126769-2.166154 8.467692-4.332308 10.594462-6.459077z" fill="#0F60AA" /><path d="M208.777846 559.852308c-63.606154-120.280615-50.884923-255.606154 25.481846-363.008 110.276923-152.536615 290.540308-180.460308 424.172308-139.618462-137.846154-4.332308-256.630154 36.509538-352.098462 137.452308-97.555692 100.982154-131.465846 223.389538-97.555692 365.174154z" fill="#0F60AA" /><path d="M541.774769 261.277538c-144.226462 0-263.010462 109.528615-263.010461 242.727385 0 133.159385 118.784 242.727385 263.010461 242.727385s263.010462-109.568 263.010462-242.727385c0-135.325538-116.657231-242.727385-263.010462-242.727385z m0 347.963077l-129.378461-111.694769 129.378461-111.694769 129.378462 105.275077-129.378462 118.153846z" fill="#F2AA27" /></svg>