<?xml version="1.0" standalone="no"?><!DOCTYPE svg PUBLIC "-//W3C//DTD SVG 1.1//EN" "http://www.w3.org/Graphics/SVG/1.1/DTD/svg11.dtd"><svg class="icon" width="512px" height="512.00px" viewBox="0 0 1024 1024" version="1.1" xmlns="http://www.w3.org/2000/svg"><path d="M62.639655 1013.76a58.564923 58.564923 0 0 1-54.468923-54.429538 12305.408 12305.408 0 0 1 0-896.708924A58.564923 58.564923 0 0 1 62.639655 8.152615c298.929231-10.870154 597.819077-10.870154 896.708923 0A58.564923 58.564923 0 0 1 1013.778117 62.621538c10.870154 298.929231 10.870154 597.819077 0 896.708924a58.564923 58.564923 0 0 1-54.468923 54.468923c-299.598769 10.870154-597.779692 10.870154-896.708923 0z" fill="#0047BA" /><path d="M503.865502 113.427692c129.339077 130.008615 258.717538 258.717538 388.056615 388.726154-262.104615-65.378462-520.822154-65.378462-776.152615 0l388.096-388.726154z m193.378461 388.056616l-37.494154 1.378461c-187.864615 6.813538-309.090462 34.028308-225.358769 92.553846 100.785231 70.144-70.104615 111.025231-102.793846 120.516923l172.268308 173.64677 388.056615-388.765539h-194.717539v0.669539z" fill="#F5F5F5" /></svg>