<?xml version="1.0" standalone="no"?><!DOCTYPE svg PUBLIC "-//W3C//DTD SVG 1.1//EN" "http://www.w3.org/Graphics/SVG/1.1/DTD/svg11.dtd"><svg class="icon" width="512px" height="512.00px" viewBox="0 0 1024 1024" version="1.1" xmlns="http://www.w3.org/2000/svg"><path d="M275.099846 3.625725a156.71042 156.71042 0 0 1 131.071193 69.789109A412.945151 412.945151 0 0 0 155.253199 257.024781a153.244595 153.244595 0 0 1-21.464483-164.469141A156.119655 156.119655 0 0 1 275.099846 3.625725z m324.094006 299.242467c-44.898185 31.586267-40.053907 108.622101 10.909471 172.070325 51.002763 63.448225 128.7869 89.284374 173.803238 57.698107 44.976954-31.586267 39.89637-108.622101-11.106393-172.070326-50.963379-63.448225-128.747515-89.284374-173.606316-57.698106z m-463.947915-8.940253a394.631418 394.631418 0 0 0 68.765116 441.616975 336.657621 336.657621 0 0 0 110.118707 74.003236c6.971034 3.032597 29.144436 14.414681 91.489898 13.548225 27.372139 0 72.821706-5.631965 88.536071-38.951145 2.678137-9.964246 3.662747-20.282952 2.914443-30.562274a78.374902 78.374902 0 0 1-75.460458 13.390687c-45.449566-13.233149-44.543726-59.391635-42.377586-72.073402 13.705762-79.16259 92.080664-80.659196 110.86701-83.652409a124.37585 124.37585 0 0 1 121.776482 81.05304c72.821706 195.70095-88.299764 299.990769-129.377666 313.657147-115.632519 38.990529-286.324392 8.270718-355.995347-69.513419C44.780033 860.15707 0.078769 746.218079 0.078769 625.071747c0-133.119181 47.497554-247.215709 135.167168-331.695189v0.551381z m746.215716 0a469.85557 469.85557 0 0 1 22.724783 650.629842c-142.886505 159.624864-364.147913 56.240885-218.465117-112.087925 22.724783-26.111839 79.950277-53.641516 127.290294-96.885558A394.631418 394.631418 0 0 0 881.501037 293.809786v0.118153z m-463.475302 8.940253c-45.016338-31.586267-122.642938-5.750118-173.763853 57.698106-51.160301 63.448225-55.807657 141.03544-11.067009 173.054935 44.701263 32.019495 122.642938 5.789503 173.606316-57.658722 51.002763-63.487609 55.92581-140.484059 11.067009-172.10971l0.157537-0.984609zM745.231107 0.002363c61.518391 0 117.286663 35.839779 142.453277 91.371745a153.441517 153.441517 0 0 1-25.914917 166.083901 412.196848 412.196848 0 0 0-249.933232-183.609947A156.198423 156.198423 0 0 1 745.231107 0.002363z" fill="#231815" /></svg>