<?xml version="1.0" standalone="no"?><!DOCTYPE svg PUBLIC "-//W3C//DTD SVG 1.1//EN" "http://www.w3.org/Graphics/SVG/1.1/DTD/svg11.dtd"><svg class="icon" width="512px" height="512.00px" viewBox="0 0 1024 1024" version="1.1" xmlns="http://www.w3.org/2000/svg"><path d="M512.377897 0.000394a299.821762 299.821762 0 0 1 288.402231 218.546201 7.481762 7.481762 0 0 0 5.237233 4.882835 299.821762 299.821762 0 0 1 0 577.00135 7.481762 7.481762 0 0 0-5.237233 4.882834 299.821762 299.821762 0 0 1-577.040728 0.354399l0.078756 0.078755a7.481762 7.481762 0 0 0-4.764701-5.158478 299.821762 299.821762 0 0 1 0-577.276994 7.481762 7.481762 0 0 0 4.646568-5.1191A299.821762 299.821762 0 0 1 512.377897 0.000394z m258.829583 242.842239l0.393777-0.315022-10.395711 7.481762c-3.543992 2.480795-7.16674 4.922212-10.789488 7.284873l-0.51191-0.472532a429.531886 429.531886 0 0 1-237.408118 71.155493 429.492508 429.492508 0 0 1-237.408117-71.155493l-0.51191 0.472532-10.75011-7.245495-10.474467-7.52114 0.787554 0.630043a7.481762 7.481762 0 0 0-10.946999 9.844424c5.158478 6.891096 10.041312 13.900326 14.609125 21.067066l-0.433155 0.51191a429.453131 429.453131 0 0 1 71.116115 237.408117 429.453131 429.453131 0 0 1-71.076737 237.211229l0.433154 0.472532a334.316622 334.316622 0 0 1-14.766635 21.382088l0.236266-0.275644a7.481762 7.481762 0 0 0 10.907622 9.962557l-0.315022 0.275644c6.772963-5.040345 13.703438-9.844423 20.752045-14.451614l0.51191 0.472532a431.579526 431.579526 0 0 1 474.776856 0l0.51191-0.472532c7.087985 4.646568 14.018459 9.450647 20.791423 14.490991a7.481762 7.481762 0 0 0 9.962556-10.868243l1.181331 1.338841a622.167565 622.167565 0 0 1-15.160412-21.657731l0.393777-0.51191a431.658282 431.658282 0 0 1 0-474.776857l-0.433155-0.51191 7.206118-10.710733 7.403007-10.356333-0.590666 0.787554a7.481762 7.481762 0 0 0-10.001934-10.946999z" fill="#82A70B" /></svg>