<?xml version="1.0" standalone="no"?><!DOCTYPE svg PUBLIC "-//W3C//DTD SVG 1.1//EN" "http://www.w3.org/Graphics/SVG/1.1/DTD/svg11.dtd"><svg class="icon" width="512px" height="512.00px" viewBox="0 0 1024 1024" version="1.1" xmlns="http://www.w3.org/2000/svg"><path d="M11.145846 569.698462c47.734154-151.748923 232.763077-278.646154 371.515077-333.587693a193.772308 193.772308 0 0 1 26.584615-8.388923c0.393846-0.196923 13.705846-3.623385 13.272616-1.181538-0.157538 0.590769-1.339077 0.590769-2.717539 1.181538-1.181538 0.393846-2.166154 1.536-3.702153 2.284308-1.772308 0.945231-4.135385 3.268923-5.12 4.017231-1.339077 1.181538 0 0.393846-0.157539 1.732923-0.393846 2.875077 1.732923 2.087385 5.080615 1.732923 8.625231-0.787692 25.206154-7.68 28.356924-8.073846 2.166154-0.393846 4.489846-1.142154 5.671384-1.339077 5.671385-0.551385 4.332308 0.787692 1.181539 3.268923-3.150769 2.126769-8.428308 6.144-13.90277 9.176615-119.492923 66.953846-288.334769 180.145231-280.694153 325.710769 6.222769 118.350769 175.458462 118.272 257.811692 120.39877 10.003692 0.157538 21.149538 0.551385 28.947692 2.638769 6.459077 1.772308 11.342769 0.393846 11.342769 3.859692 0 0-2.717538 1.536-3.899077 1.890462-4.332308 1.181538-11.539692 4.411077-12.72123 6.537846-0.393846 0.748308-2.756923 3.623385-1.969231 4.726154 0.590769 0.984615 2.56 1.378462 4.332308 1.96923 1.378462 0.393846 2.756923 1.142154 2.756923 1.339077 0.945231 2.284308 14.257231 0.157538 13.469538 3.820308-0.393846 2.284308-6.262154 4.214154-6.852923 6.498462-0.196923 1.339077 0.787692 2.678154 0.984615 3.820307 0.393846 1.929846 0 3.662769-0.984615 5.19877-3.702154 5.907692-17.604923 3.977846-16.620308 8.192 0.393846 1.929846 13.705846 5.001846 14.848 6.144 0.984615 0.748308 3.938462 0.945231 7.089231 2.087384 2.323692 0.787692 6.025846 2.481231 8.782769 3.072 3.505231 0.590769 6.459077 3.072 8.979693 4.411077 3.741538 1.496615 6.656 1.890462 6.656 2.481231 0 1.339077-2.756923 1.890462-5.474462 3.072-5.277538 2.087385-13.115077 4.214154-17.998769 6.301538 0.393846 0.393846 1.772308 0.945231 2.166154 1.339077 1.575385 1.732923 2.126769 3.268923 4.726154 4.214154 4.450462 1.536 9.924923 0.945231 12.681846 5.907692 0.196923 0.393846-0.393846 0.984615-0.393846 1.378462 1.181538 2.678154 1.772308 5.513846 0.590769 9.176615-2.166154 6.695385-18.195692 10.318769-13.902769 16.068923 1.969231 2.678154 6.065231 4.962462 10.555077 6.695385 3.544615 1.181538 7.246769 2.087385 10.358153 3.229538 6.065231 2.520615 7.089231 8.664615 11.539693 11.500308 4.726154 3.268923 12.721231 3.268923 8.822154 3.662769-0.196923 0.787692-3.938462 2.087385-5.513847 2.63877-4.450462 1.969231-12.681846 2.875077 0.787693 5.001846 18.235077 2.875077 41.905231 5.12 37.80923 4.962461a6.459077 6.459077 0 0 1-2.363076 2.12677c-2.166154 1.339077-5.710769 2.481231-7.640616 3.229538-92.947692 34.067692-221.026462 19.692308-314.564923-1.496615-137.097846-30.838154-245.681231-131.111385-200.467692-274.628923zM479.704615 320.315077l80.226462-20.637539c15.438769-3.465846 25.048615-7.483077 33.28 8.034462l3.072 38.439385c0.196923 24.497231-12.288 31.980308-32.846769 38.675692l-83.731693 21.425231V320.315077z" fill="#6FB92C" /><path d="M1023.684923 315.746462c-7.837538 169.944615-346.269538 373.523692-543.428923 391.719384v-217.796923c197.001846-28.672 360.132923-131.426462 363.835077-212.007385 5.316923-117.523692-273.841231-75.421538-354.461539-52.066461l0.196924-16.068923c49.506462-18.904615 151.236923-48.049231 252.731076-51.475692 143.793231-5.001846 287.192615 33.476923 281.127385 157.696z" fill="#00398F" /></svg>