<?xml version="1.0" standalone="no"?><!DOCTYPE svg PUBLIC "-//W3C//DTD SVG 1.1//EN" "http://www.w3.org/Graphics/SVG/1.1/DTD/svg11.dtd"><svg class="icon" width="512px" height="512.00px" viewBox="0 0 1024 1024" version="1.1" xmlns="http://www.w3.org/2000/svg"><path d="M663.552 19.692308c155.057231 0 295.778462 90.702769 359.896615 231.896615L846.375385 348.356923a234.338462 234.338462 0 0 1 45.449846 416.452923c-10.633846 7.089231-21.858462 13.272615-33.476923 18.510769l-292.94277 159.82277V836.923077l11.145847-1.890462 3.780923-0.669538h1.890461l3.702154-0.787692h2.126769l3.66277-0.905847h2.126769l3.544615-0.866461h2.048l3.662769-1.024h1.575385c6.262154-1.772308 12.406154-3.702154 18.432-5.789539h1.417846l3.584-1.339076 1.772308-0.669539 3.465846-1.339077 1.811692-0.787692 3.347693-1.339077 1.772307-0.787692 3.465846-1.457231 1.181539-0.551385 11.972923-5.671384 1.220923-0.669539 3.229539-1.693538 1.693538-0.905846 2.914462-1.575385 1.96923-1.102769 2.796308-1.575385 1.929846-1.102769 2.756923-1.654154 1.693539-1.024 2.914461-1.772308 1.339077-0.905846 9.688616-6.459077 1.811692-1.220923 2.323692-1.811692 1.890462-1.339077 2.244923-1.654154 1.969231-1.575385 2.166153-1.654153 1.890462-1.575385 2.126769-1.772308 1.890462-1.693538 1.96923-1.654154 2.048-1.811692 1.890462-1.654154 3.465846-3.229539 1.890462-1.811692 1.772307-1.772308 3.032616-4.804923 1.772307-1.772307 1.693539-1.772308 1.772308-1.929846 1.693538-1.890462 1.654154-1.890461 1.575385-1.772308 1.772307-2.126769 1.339077-1.693539 1.890462-2.441846 1.142154-1.457231 2.756923-3.780923 1.142153-1.575384 1.654154-2.441846 1.220923-1.772308 1.575385-2.363077 1.220923-1.890462 1.339077-2.244923 1.142154-1.890461 1.417846-2.441846 1.024-1.811693 1.457231-2.678154 0.866461-1.654153 1.693539-3.347693v-1.024l2.008615-4.332307 0.551385-1.339077 1.339077-3.032616 0.787692-1.890461 0.984615-2.56 0.669539-1.772308 1.024-2.678154 0.551384-1.811692 0.905847-2.756923v-1.811692l0.866461-2.914462V681.353846l1.024-4.017231v-0.669538a11.027692 11.027692 0 0 1 0.984616-4.568615v-1.575385l0.590769-3.150769V620.780308c0-1.417846 0-2.875077-0.669539-4.332308v-0.905846l-0.669538-3.662769v-1.142154l-1.024-4.332308-0.984616-4.135385v-1.339076l0.866462-3.702154v-0.866462l-1.339077-4.135384v-1.220924l-1.102769-3.229538v-1.260308l-1.575385-4.01723v-1.181539l-1.339077-3.150769v-1.220923l-1.772307-3.820308v-0.984615l-1.575385-3.15077-0.787692-1.417846-1.575385-2.914461-0.512-1.102769-2.126769-3.544616-1.024-1.575384-1.457231-2.481231-0.866461-1.457231-2.244924-3.465846-0.984615-1.575385-1.575385-2.205538-1.220923-1.654154-2.008615-2.678154-1.575385-2.126769-1.575384-2.008616-1.417846-1.811692-1.575385-1.890461-5.238154-1.969231-2.008615-2.244923-1.693539-1.811693-1.45723-1.575384-1.772308-1.890462-2.678154-2.678154-1.890462-1.890461-1.339076-1.339077-2.008616-1.890462-1.220923-1.102769-3.229538-3.465846-1.260308-1.102769-2.205539-1.929846-1.142153-0.866462-4.68677-3.820308h-0.669538l-2.56-1.96923-0.984615-0.787693-8.822154-6.813538-0.787693-0.590769-9.373538-6.22277-3.229539-2.008615-10.24-5.907692-10.633846-5.513846-11.145846-5.19877a319.606154 319.606154 0 0 0-77.469538-22.331077l1.575384-0.905846h-125.794461a42.299077 42.299077 0 0 1-42.141539-42.141538V325.750154c0-23.236923 18.904615-42.141538 42.141539-42.141539h136.822154c23.276308 0 42.141538 18.904615 42.180923 42.141539v79.241846c0 4.647385-0.708923 9.255385-2.205539 13.627077l152.221539-83.140923c-15.320615-83.692308-99.643077-150.882462-208.46277-167.384616V31.980308A395.972923 395.972923 0 0 1 663.552 19.692308z m50.688 752.521846l3.938462-3.938462-3.938462 3.938462z" fill="#F6AB00" /><path d="M359.975385 985.245538A395.264 395.264 0 0 1 0 753.427692l177.230769-96.728615A234.338462 234.338462 0 0 1 131.702154 240.206769a240.246154 240.246154 0 0 1 33.476923-18.510769l292.942769-159.901538v106.220307l-11.185231 1.890462-4.135384 0.787692h-1.890462l-3.662769 0.787692h-2.126769l-3.702154 0.866462h-2.087385l-3.584 0.905846h-2.008615l-3.702154 0.984615h-1.575385a354.107077 354.107077 0 0 0-18.392615 5.828924h-1.457231l-3.544615 1.339076-1.811692 0.669539-3.465847 1.339077-1.772307 0.787692-3.347693 1.339077-1.772307 0.787692-3.465846 1.417847-1.220923 0.551384-11.933539 5.592616-1.260308 0.669538-3.229538 1.693538-1.654154 0.866462-2.914461 1.575385-1.969231 1.102769-2.835693 1.575384-1.890461 1.10277-2.756923 1.693538-1.693539 0.984616-2.914461 1.811692-1.339077 0.866461-9.688615 6.498462-1.811693 1.181538-2.363077 1.811693-1.851077 1.339077-2.244923 1.693538-2.008615 1.575385-2.126769 1.654154-1.890462 1.575384-2.126769 1.772308-1.890462 1.654154-2.008615 1.693538-2.008615 1.772308-1.890462 1.693538-3.465846 3.229539-1.890462 1.772307-1.811692 1.811693-1.772308 1.772307-1.772307 1.772308-1.693539 1.811692-1.772307 1.890462-1.693539 1.890462-1.654154 1.890461-1.575384 1.772308-1.772308 2.126769-1.339077 1.693538-1.890462 2.441847-1.142153 1.45723-2.756923 3.780923-1.142154 1.575385-1.654154 2.441846-1.260308 1.811693-1.575384 2.363076-1.181539 1.851077-1.339077 2.244923-1.142154 1.890462-1.45723 2.441846-0.984616 1.811692-1.457231 2.678154-0.905846 1.654154-1.654154 3.347692v1.024l-2.008615 4.332308-0.551385 1.339077-1.339077 3.032615-0.787692 1.890462-1.024 2.56-1.772308 4.726154-0.984615 2.638769-0.590769 1.811692-0.866462 2.756923v1.811693l-0.905846 2.875077v1.693538l-0.984615 4.017231v0.669538a11.027692 11.027692 0 0 1-1.024 4.568616v1.575384l-0.551385 3.111385v46.867692c0 1.496615 0.236308 2.953846 0.669539 4.332308v0.905846l0.669538 3.702154v1.102769l0.984615 4.332308 1.024 4.135385v1.339076l0.984616 3.465847v0.905846l1.339077 4.135384v1.220923l1.142154 3.229539v1.220923l1.575384 4.017231v1.260307l1.299693 3.111385v1.220923l1.811692 3.780923v1.024l1.575384 3.150769 0.787693 1.417847 1.536 2.914461 0.551384 1.102769 2.12677 3.544616 0.984615 1.575384 1.457231 2.481231 0.905846 1.457231 2.244923 3.426461 0.984615 1.575385 1.575385 2.244923 1.220923 1.654154 2.008615 2.678154 1.575385 2.126769 1.575385 2.008615 1.417846 1.772308 1.575384 1.929846 1.890462 2.363077 2.008615 2.205539 1.654154 1.772307 1.457231 1.575385 1.811692 1.890462 2.678154 2.678153 1.890462 1.890462 1.339077 1.339077 1.96923 1.890461 1.260308 1.142154 3.702154 3.426462 1.181538 1.142154 2.244923 1.890461 1.142154 0.905846 4.68677 3.780923h0.669538l2.56 2.008616 0.984615 0.787692 8.507077 6.262154 0.787693 0.551385 9.373538 6.222769 3.229539 2.008615 10.24 5.907692 10.633846 5.513847 11.145846 5.238153c24.772923 10.633846 50.806154 18.156308 77.430154 22.291693l-1.575385 0.905846h127.369846c23.236923 0.039385 42.141538 18.904615 42.141539 42.180923v79.241846a42.299077 42.299077 0 0 1-42.141539 43.953231h-136.822154a42.299077 42.299077 0 0 1-42.180923-42.141539v-79.28123c0-4.608 0.748308-9.216 2.244923-13.587693L249.698462 670.72c15.320615 83.692308 99.643077 150.843077 208.462769 167.384615v133.907693c-32.059077 8.192-65.063385 12.327385-98.185846 12.288v0.905846zM311.532308 234.968615l-3.938462 3.938462 3.938462-3.938462z" fill="#E83820" /></svg>