<?xml version="1.0" standalone="no"?><!DOCTYPE svg PUBLIC "-//W3C//DTD SVG 1.1//EN" "http://www.w3.org/Graphics/SVG/1.1/DTD/svg11.dtd"><svg class="icon" width="512px" height="512.00px" viewBox="0 0 1024 1024" version="1.1" xmlns="http://www.w3.org/2000/svg"><path d="M5.671385 298.496L284.435692 19.692308h392.546462l290.146461 273.092923v364.110769s-96.728615 51.2-187.746461 22.764308c-91.017846-28.435692-130.835692-62.582154-130.835692-62.582154V292.785231H312.871385v392.585846s159.310769-73.964308 261.710769-34.146462c102.4 39.817846 204.8 125.164308 324.253538 96.728616C1018.328615 719.478154 1024 668.278154 1024 668.278154v273.092923s-119.453538 68.292923-233.235692 62.621538c-119.492923-11.421538-153.6-62.621538-244.617846-85.346461-85.346462-17.092923-113.821538-11.421538-165.021539 0-56.871385 11.342769-119.453538 45.489231-119.453538 45.489231L0 696.713846 5.671385 298.535385z" fill="#D8353B" /></svg>