<?xml version="1.0" standalone="no"?><!DOCTYPE svg PUBLIC "-//W3C//DTD SVG 1.1//EN" "http://www.w3.org/Graphics/SVG/1.1/DTD/svg11.dtd"><svg class="icon" width="512px" height="512.00px" viewBox="0 0 1024 1024" version="1.1" xmlns="http://www.w3.org/2000/svg"><path d="M415.153938 7.128563S264.036274 22.961063 118.274877 189.241694c0 0 344.770404-1.417836 500.771725 19.416473 0 0-57.304197-90.583953-203.892664-201.529604z m193.770892 1009.971697S760.121264 1001.110223 905.843276 834.947745c0 0-344.770404 1.260298-500.732341-19.574011 0 0 57.264812 90.623338 203.853279 201.647757z" fill="#FFAC00" /><path d="M621.449046 783.866272s393.410048-17.998638 402.192754-312.002643C1019.270139 182.388821 683.558131-42.810764 414.996401 7.01041c0 0 268.443577 191.959213 290.459416 399.632772 30.168395 201.253914-58.682648 332.679415-84.006771 377.22309zM402.196495 240.086861S8.825831 258.046114 0.003742 552.089504c4.411045 290.026188 340.083669 515.10762 608.645398 464.853218 0 0-268.404192-191.801675-290.459416-399.632772-30.129011-201.096377 58.682648-332.718799 84.006771-377.223089z" fill="#E85C00" /><path d="M379.471738 391.204526h254.895368V645.902972H379.471738z" fill="#FFAC00" /></svg>