<?xml version="1.0" standalone="no"?><!DOCTYPE svg PUBLIC "-//W3C//DTD SVG 1.1//EN" "http://www.w3.org/Graphics/SVG/1.1/DTD/svg11.dtd"><svg class="icon" width="512px" height="512.00px" viewBox="0 0 1024 1024" version="1.1" xmlns="http://www.w3.org/2000/svg"><path d="M441.422769 440.871385h144.699077v144.738461h-144.699077z" fill="#0095DA" /><path d="M0 578.363077V368.521846c61.518769 3.623385 155.569231 7.246769 191.763692-47.025231 166.439385-264.152615 350.956308-271.36 531.849846-137.491692v329.255385c-7.207385-141.115077-119.374769-202.633846-198.971076-209.880616-94.089846-7.246769-173.686154 57.895385-206.257231 126.660923-61.479385 133.868308-159.192615 137.452308-318.385231 148.322462z" fill="#0095DA" /><path d="M1023.921231 444.494769v209.841231c-57.895385-3.623385-155.569231-7.207385-191.763693 47.064615-166.4 264.113231-350.916923 271.36-531.849846 137.452308v-325.592615c7.246769 141.075692 119.414154 202.594462 199.010462 209.84123 94.050462 7.246769 173.686154-57.895385 206.217846-126.660923 57.895385-141.075692 159.192615-144.699077 318.385231-151.945846z" fill="#51A283" /></svg>