<?xml version="1.0" standalone="no"?><!DOCTYPE svg PUBLIC "-//W3C//DTD SVG 1.1//EN" "http://www.w3.org/Graphics/SVG/1.1/DTD/svg11.dtd"><svg t="1783045098291" class="icon" viewBox="0 0 1024 1024" version="1.1" xmlns="http://www.w3.org/2000/svg" p-id="9395" xmlns:xlink="http://www.w3.org/1999/xlink" width="200" height="200"><path d="M768 725.333333H256v-85.333333h512v85.333333z m0-170.666666H256v-85.333334h512v85.333334z m0-170.666667H256V298.666667h512v85.333333zM128 938.666667l64-64L256 938.666667l64-64L384 938.666667l64-64L512 938.666667l64-64L640 938.666667l64-64L768 938.666667l64-64L896 938.666667V85.333333l-64 64L768 85.333333l-64 64L640 85.333333l-64 64L512 85.333333l-64 64L384 85.333333 320 149.333333 256 85.333333 192 149.333333 128 85.333333v853.333334z" fill="#ff6457" p-id="9396"></path></svg>