<?xml version="1.0" standalone="no"?><!DOCTYPE svg PUBLIC "-//W3C//DTD SVG 1.1//EN" "http://www.w3.org/Graphics/SVG/1.1/DTD/svg11.dtd"><svg t="1783045063038" class="icon" viewBox="0 0 1024 1024" version="1.1" xmlns="http://www.w3.org/2000/svg" p-id="6511" xmlns:xlink="http://www.w3.org/1999/xlink" width="200" height="200"><path d="M541.036991 255.011225c47.194986 11.992996 92.499973-10.079997 101.238971-49.355985 8.737997-39.229989-22.436993-80.759976-69.58598-92.796973-47.240986-12.014996-92.524973 10.079997-101.23997 49.355985-8.737997 39.253988 22.413993 80.782976 69.586979 92.796973z m441.313871 65.135981a541.523841 541.523841 0 0 0-35.11199-79.780976c-39.025989-72.157979-93.001973-131.685961-156.102954-176.036949-11.263997-7.827998-32.69999-20.183994-33.35999-20.547994a4.814999 4.814999 0 0 0-0.477-0.25C640.789962-21.141694 581.10198-6.896698 582.057979 41.572288c0.751 36.226989 33.06399 45.215987 61.712982 59.278982 97.393971 47.739986 149.959956 121.127965 123.220964 180.701948-24.529993 54.657984-115.711966 73.931978-210.123938 39.093988-96.665972-35.68099-223.391935-120.627965-240.43593-24.803993-14.403996 80.963976 106.700969 83.603976 232.879932 216.018937 54.067984 56.729983 67.99398 155.442954 36.386989 234.790931-68.01598 119.762965-262.871923 91.749973-351.254897-6.006998-101.48997-112.298967-88.268974-229.307933-83.034975-258.115924 12.309996-58.026983 34.58899-105.426969 51.859984-134.121961 17.521995-31.583991 26.509992-52.564985 26.213993-77.936977-0.5-40.959988-28.466992-67.90298-67.309981-70.26998-46.307986-2.820999-80.599976 26.988992-100.62597 71.01998C13.966146 374.32919-1.68985 493.500155 22.886143 610.987121c0.364 2.183999 0.682 4.368999 1.115 6.552998 2.252999 11.514997 5.142998 22.778993 8.487997 33.72399l-0.068999-0.045s4.687999 18.749995 15.860995 44.259987c3.639999 9.282997 7.258998 18.567995 11.286997 27.532992-0.091-0.113-0.205-0.227-0.319-0.341 0 0 0.319 0.569 0.773999 1.365 109.249968 241.845929 378.151889 361.358894 622.978818 268.083921 259.799924-98.963971 393.806885-399.815883 299.348912-671.971803z" fill="#1296DB" p-id="6512"></path></svg>